<svg width="208" height="64" viewBox="0 0 208 64" fill="none" xmlns="http://www.w3.org/2000/svg">
<mask id="path-1-inside-1" fill="white">
<path fill-rule="evenodd" clip-rule="evenodd" d="M12 0C9.79086 0 8 1.79086 8 4V19C15.1797 19 21 24.8203 21 32C21 39.1797 15.1797 45 8 45V60C8 62.2091 9.79086 64 12 64H204C206.209 64 208 62.2091 208 60V4C208 1.79086 206.209 0 204 0H12Z"/>
</mask>
<path fill-rule="evenodd" clip-rule="evenodd" d="M12 0C9.79086 0 8 1.79086 8 4V19C15.1797 19 21 24.8203 21 32C21 39.1797 15.1797 45 8 45V60C8 62.2091 9.79086 64 12 64H204C206.209 64 208 62.2091 208 60V4C208 1.79086 206.209 0 204 0H12Z" fill="#181818"/>
<path d="M8 19H7V20H8V19ZM8 45V44H7V45H8ZM9 4C9 2.34315 10.3431 1 12 1V-1C9.23858 -1 7 1.23858 7 4H9ZM9 19V4H7V19H9ZM8 20C14.6274 20 20 25.3726 20 32H22C22 24.268 15.732 18 8 18V20ZM20 32C20 38.6274 14.6274 44 8 44V46C15.732 46 22 39.732 22 32H20ZM9 60V45H7V60H9ZM12 63C10.3431 63 9 61.6569 9 60H7C7 62.7614 9.23857 65 12 65V63ZM204 63H12V65H204V63ZM207 60C207 61.6569 205.657 63 204 63V65C206.761 65 209 62.7614 209 60H207ZM207 4V60H209V4H207ZM204 1C205.657 1 207 2.34315 207 4H209C209 1.23858 206.761 -1 204 -1V1ZM12 1H204V-1H12V1Z" fill="#F8CE4C" fill-opacity="0.1" mask="url(#path-1-inside-1)"/>
<circle cx="8" cy="32" r="7.5" stroke="white"/>
</svg>
